<svg xmlns="http://www.w3.org/2000/svg" version="1.1" xmlns:xlink="http://www.w3.org/1999/xlink" xmlns:svgjs="http://svgjs.com/svgjs" width="1920" height="1080" preserveAspectRatio="none" viewBox="0 0 1920 1080"><g mask="url(&quot;#SvgjsMask1008&quot;)" fill="none"><rect width="1920" height="1080" x="0" y="0" fill="#0e2a47"></rect><path d="M186.34 0C186.34 72.95 52.19 236.25 0 236.25C-40.98 236.25 -52.09 66.04 0 0C41.08 -52.09 186.34 -45.18 186.34 0" stroke="rgba(51, 121, 194, 0.58)" stroke-width="2"></path><path d="M433.42 270C430.75 134.27 315.43 80.34 347.14 0C368.72 -54.66 443.57 0 540 0C675 0 675 0 810 0C945 0 945 0 1080 0C1175.11 0 1179.6 -16.14 1270.23 0C1314.6 7.9 1305.15 42.58 1350 48.08C1480.04 64.01 1489.43 61.16 1620 42.86C1660.92 37.12 1652.41 6.44 1692.97 0C1787.41 -14.99 1791.49 0 1890 0C2025 0 2092.5 -67.5 2160 0C2227.5 67.5 2160 135 2160 270C2160 405 2160 405 2160 540C2160 675 2160 675 2160 810C2160 945 2227.5 1012.5 2160 1080C2092.5 1147.5 2025 1080 1890 1080C1755 1080 1755 1080 1620 1080C1485 1080 1485 1080 1350 1080C1215 1080 1215 1080 1080 1080C945 1080 945 1080 810 1080C675 1080 675 1080 540 1080C405 1080 405 1080 270 1080C135 1080 67.5 1147.5 0 1080C-67.5 1012.5 0 945 0 810C0 675 0 675 0 540C0 417.77 -47.86 295.54 0 295.54C65.2 295.54 173.51 398.47 226.12 540C269.13 655.7 174.92 690.75 191.25 810C196.86 850.95 230.14 860.4 270 860.4C312.47 860.4 344.09 853.17 355.91 810C387.96 692.97 338.74 672.45 357.75 540C377.49 402.45 436.06 404.27 433.42 270" stroke="rgba(51, 121, 194, 0.58)" stroke-width="2"></path><path d="M1890 148.78C1852.54 148.78 1831.59 202.22 1810.8 270C1771.59 397.83 1824.86 423.56 1770 540C1729.46 626.06 1704.87 622.46 1620 675C1494.87 752.46 1483.02 735.15 1350 800C1344.56 802.65 1343.08 805.35 1343.08 810C1343.08 813.65 1345.89 814.16 1350 816.59C1484.35 895.98 1490.65 975.42 1620 973.64C1729.5 972.13 1728.78 896.93 1827.69 810C1863.78 778.29 1865.5 777.57 1890 736.36C1945.75 642.57 1973.1 644.2 1988.18 540C2006.85 411.02 1990 399.49 1957.5 270C1940.91 203.88 1925.89 148.78 1890 148.78" stroke="rgba(51, 121, 194, 0.58)" stroke-width="2"></path><path d="M810 677.87C753.7 677.87 692.83 750.13 692.83 810C692.83 859.32 752.89 896.25 810 896.25C862.37 896.25 911.8 858.53 911.8 810C911.8 749.34 863.18 677.87 810 677.87" stroke="rgba(51, 121, 194, 0.58)" stroke-width="2"></path><path d="M91.27 0C91.27 35.73 25.56 115.71 0 115.71C-20.07 115.71 -25.51 32.34 0 0C20.12 -25.51 91.27 -22.13 91.27 0" stroke="rgba(51, 121, 194, 0.58)" stroke-width="2"></path><path d="M540 202.5C454.87 145.14 434.81 69.3 434.81 0C434.81 -31.95 487.4 0 540 0C675 0 675 0 810 0C945 0 945 0 1080 0C1098.41 0 1100.74 -8.37 1116.82 0C1235.74 61.9 1223.72 102.9 1350 140.55C1475.31 177.9 1502.66 109.04 1620 150C1688.06 173.76 1720.8 202.79 1720.8 270C1720.8 377.34 1705.12 428.55 1620 499.09C1542.22 563.55 1507.35 518.82 1395 540C1372.35 544.27 1364.31 532.82 1350 550C1251.81 667.82 1170 689.25 1170 810C1170 904.86 1254.23 902.87 1350 981.22C1419.23 1037.87 1500 1053.09 1500 1080C1500 1102.48 1425 1080 1350 1080C1215 1080 1215 1080 1080 1080C945 1080 945 1080 810 1080C675 1080 675 1080 540 1080C405 1080 405 1080 270 1080C135 1080 67.5 1147.5 0 1080C-67.5 1012.5 0 945 0 810C0 675 0 675 0 540C0 463.38 -30 386.76 0 386.76C40.87 386.76 131.05 450.52 141.75 540C156.36 662.14 17.12 702.79 50.62 810C81.24 907.99 158.95 950.4 270 950.4C388.3 950.4 444.39 913.9 509.32 810C572.64 708.7 513.43 674.2 526.5 540C528.77 516.7 520.45 495 540 495C617.2 495 715.24 481.16 720 540C727.98 638.66 542.7 696.14 565.47 810C587.7 921.14 690.81 990 810 990C919.31 990 1019.54 912 1022.46 810C1025.97 687 875.98 689.63 822.86 540C780.13 419.63 836.62 400.57 830.77 270C830.19 256.96 823.01 255.79 810 252.77C677.62 222.04 642.46 271.53 540 202.5" stroke="rgba(51, 121, 194, 0.58)" stroke-width="2"></path><path d="M1890 11.02C1885.39 3.18 1875.41 3.06 1875.41 0C1875.41 -2.45 1882.7 0 1890 0C2025 0 2092.5 -67.5 2160 0C2227.5 67.5 2160 135 2160 270C2160 405 2160 405 2160 540C2160 675 2160 675 2160 810C2160 945 2227.5 1012.5 2160 1080C2092.5 1147.5 2025 1080 1890 1080C1785 1080 1680 1119.8 1680 1080C1680 1026.85 1785.52 987.63 1890 894.1C1936.33 852.63 1945.91 860.25 1981.61 810C2071.7 683.2 2127.94 680.2 2141.59 540C2154.23 410.2 2096.47 400.93 2034.2 270C1970.68 136.44 1964.78 138.18 1890 11.02" stroke="rgba(51, 121, 194, 0.58)" stroke-width="2"></path><path d="M540 33.75C522.83 27.23 522.47 11.55 522.47 0C522.47 -5.32 531.24 0 540 0C675 0 675 0 810 0C877.5 0 945 -23.87 945 0C945 30.7 887.44 102.7 810 109.15C684.94 119.57 666.59 81.81 540 33.75" stroke="rgba(51, 121, 194, 0.58)" stroke-width="2"></path><path d="M1003.85 270C1003.85 215.4 1026.22 176.75 1080 171C1199.29 158.25 1213.53 211.24 1350 233.01C1483.53 254.31 1487.79 239.72 1620 257.14C1628.19 258.22 1630.8 262.8 1630.8 270C1630.8 281.5 1632.45 291.03 1620 294.55C1492.05 330.73 1481.51 310.18 1350 349.41C1211.51 390.72 1182.32 479.1 1080 455.63C1009.24 439.4 1003.85 357.71 1003.85 270" stroke="rgba(51, 121, 194, 0.58)" stroke-width="2"></path><path d="M2110.91 270C2110.91 215.77 2147.15 162 2160 162C2171.7 162 2160 216 2160 270C2160 326.84 2171.75 383.68 2160 383.68C2147.2 383.68 2110.91 326.61 2110.91 270" stroke="rgba(51, 121, 194, 0.58)" stroke-width="2"></path><path d="M0 477.97C16.54 477.97 57.37 503.84 57.37 540C57.37 604.4 14.91 679.09 0 679.09C-13.78 679.09 0 609.55 0 540C0 508.99 -12.14 477.97 0 477.97" stroke="rgba(51, 121, 194, 0.58)" stroke-width="2"></path><path d="M2102.14 810C2102.14 758.71 2144.4 714.71 2160 714.71C2173.33 714.71 2160 762.36 2160 810C2160 905.3 2174.15 1000.59 2160 1000.59C2145.22 1000.59 2102.14 901.65 2102.14 810" stroke="rgba(51, 121, 194, 0.58)" stroke-width="2"></path><path d="M57.86 1080C57.86 1070.02 165.93 1068.01 270 1040.4C407 1004.06 408.99 942.24 540 952.11C671.89 962.04 795.79 1046.25 795.79 1080C795.79 1110.19 667.89 1080 540 1080C405 1080 405 1080 270 1080C163.93 1080 57.86 1089.82 57.86 1080" stroke="rgba(51, 121, 194, 0.58)" stroke-width="2"></path><path d="M825.88 1080C825.88 1038.41 960.79 925.71 1080 925.71C1170.92 925.71 1246.15 1035.48 1246.15 1080C1246.15 1112.62 1163.07 1080 1080 1080C952.94 1080 825.88 1115.55 825.88 1080" stroke="rgba(51, 121, 194, 0.58)" stroke-width="2"></path><path d="M1805 1080C1805 1058.48 1840.29 1004.75 1890 1004.75C1987.11 1004.75 2098.64 1060.61 2098.64 1080C2098.64 1098.24 1994.32 1080 1890 1080C1847.5 1080 1805 1096.11 1805 1080" stroke="rgba(51, 121, 194, 0.58)" stroke-width="2"></path></g><defs><mask id="SvgjsMask1008"><rect width="1920" height="1080" fill="#ffffff"></rect></mask></defs></svg>